<?xml version="1.0" standalone="no"?>
<!DOCTYPE svg PUBLIC "-//W3C//DTD SVG 1.1//EN"
 "http://www.w3.org/Graphics/SVG/1.1/DTD/svg11.dtd">
<svg width="752px" height="525px" version="1.1"
 xmlns="http://www.w3.org/2000/svg" xmlns:xlink="http://www.w3.org/1999/xlink">
<path d="M 591.351399,147.613766 A57.730911,33.069894 -17.394405 0,1 513.116645,201.598260" fill="none" stroke ="red" stroke-width="1" />
<ellipse transform="translate(190.539754 165.245604) rotate(75.230349)" rx="80.828746" ry="53.709951" stroke="red" fill="none" stroke-width="1" />
<path d="M 593.023309,163.454359 A80.850939,53.604171 -0.182207 1,1 516.668468,203.269327" fill="none" stroke ="red" stroke-width="1" />
<path d="M 289.773999,274.682460 A124.959310,82.997258 -14.863277 1,1 273.875822,352.064216" fill="none" stroke ="red" stroke-width="1" />
<path d="M 275.706483,350.322089 A80.689944,53.622508 0.049095 1,1 292.213174,338.211923" fill="none" stroke ="red" stroke-width="1" />
<path d="M 413.823355,125.325798 A80.093687,53.023602 14.813734 1,1 415.926799,124.747933" fill="none" stroke ="red" stroke-width="1" />
<path d="M 487.165574,97.760569 A79.256347,50.271294 0.244945 0,1 592.305827,145.990315" fill="none" stroke ="red" stroke-width="1" />
<path d="M 502.041799,199.946081 A71.704566,51.483752 1.296997 0,1 487.246838,98.428815" fill="none" stroke ="red" stroke-width="1" />
<path d="M 99.602962,419.377488 A73.402317,41.219354 -2.097138 0,1 225.760865,404.353627" fill="none" stroke ="red" stroke-width="1" />
<path d="M 243.100452,466.893869 A80.850899,53.579372 -1.040425 0,1 99.387412,419.285238" fill="none" stroke ="red" stroke-width="1" />
<path d="M 225.229170,404.537649 A48.359179,43.074640 6.902213 0,1 244.863988,463.914938" fill="none" stroke ="red" stroke-width="1" />
<ellipse transform="translate(593.953653 443.009308) rotate(-0.024117)" rx="80.142090" ry="52.936070" stroke="red" fill="none" stroke-width="1" />
<path d="M 465.011563,102.932049 A120.892898,120.892898 0.000000 0,1 570.885500,108.220302" fill="none" stroke ="red" stroke-width="1" />
<path d="M 108.971375,478.963600 A43.559459,43.559459 0.000000 0,1 94.690150,421.831505" fill="none" stroke ="red" stroke-width="1" />
<path d="M 245.216410,418.853345 A44.226568,44.226568 0.000000 0,1 247.258142,464.139372" fill="none" stroke ="red" stroke-width="1" />
<path d="M 436.856106,46.133133 A89.343181,57.323769 17.675851 0,1 367.001501,127.991829" fill="none" stroke ="red" stroke-width="1" />
<path d="M 332.943325,18.643762 A135.269675,135.269675 0.000000 0,1 373.978953,16.876752" fill="none" stroke ="red" stroke-width="1" />
<path d="M 374.009820,17.046146 A112.211298,112.211298 0.000000 0,1 433.929712,44.040499" fill="none" stroke ="red" stroke-width="1" />
<path d="M 456.093448,187.296363 A44.266074,44.266074 0.000000 0,1 439.165053,122.419664" fill="none" stroke ="red" stroke-width="1" />
<path d="M 525.746744,474.267976 A61.432061,50.013683 0.373617 0,1 553.499157,395.768588" fill="none" stroke ="red" stroke-width="1" />
<path d="M 367.130233,127.073167 A94.109505,94.109505 0.000000 0,1 301.845725,88.143681" fill="none" stroke ="red" stroke-width="1" />
<path d="M 576.024427,113.119598 A45.188958,45.188958 0.000000 0,1 595.334347,149.976814" fill="none" stroke ="red" stroke-width="1" />
<path d="M 601.056102,388.716040 A91.644671,91.644671 0.000000 0,1 663.072243,412.925285" fill="none" stroke ="red" stroke-width="1" />
<path d="M 665.407177,470.402948 A85.958289,85.958289 0.000000 0,1 609.036547,496.718326" fill="none" stroke ="red" stroke-width="1" />
<path d="M 589.923110,498.385838 A198.562166,198.562166 0.000000 0,1 560.043788,493.060923" fill="none" stroke ="red" stroke-width="1" />
<path d="M 675.512343,435.030953 A49.973252,49.973252 0.000000 0,1 669.769236,464.901404" fill="none" stroke ="red" stroke-width="1" />
<path d="M 557.859588,492.281757 A63.264947,63.264947 0.000000 0,1 526.826291,474.148846" fill="none" stroke ="red" stroke-width="1" />
<line x1="291.952037" y1="339.113124" x2="276.980232" y2="350.151367"  fill="none" stroke ="blue" stroke-width="1" />
<line x1="278.518067" y1="351.524287" x2="294.564972" y2="339.587343"  fill="none" stroke ="blue" stroke-width="1" />
<line x1="503.469989" y1="201.160204" x2="514.538033" y2="201.663321"  fill="none" stroke ="blue" stroke-width="1" />
<line x1="554.647345" y1="395.074047" x2="574.615184" y2="389.948748"  fill="none" stroke ="blue" stroke-width="1" />
<line x1="575.445490" y1="389.707554" x2="599.469391" y2="388.055016"  fill="none" stroke ="blue" stroke-width="1" />
<line x1="225.900041" y1="485.515859" x2="201.712907" y2="495.040654"  fill="none" stroke ="blue" stroke-width="1" />
<line x1="200.589271" y1="495.050372" x2="189.555166" y2="496.840110"  fill="none" stroke ="blue" stroke-width="1" />
<line x1="188.497470" y1="497.850401" x2="177.498043" y2="497.770982"  fill="none" stroke ="blue" stroke-width="1" />
<line x1="150.469829" y1="390.121622" x2="165.454292" y2="388.926776"  fill="none" stroke ="blue" stroke-width="1" />
<line x1="137.528862" y1="393.606120" x2="149.462067" y2="390.360531"  fill="none" stroke ="blue" stroke-width="1" />
<line x1="165.448896" y1="498.110752" x2="150.470093" y2="496.857428"  fill="none" stroke ="blue" stroke-width="1" />
<line x1="149.456421" y1="496.657215" x2="133.568436" y2="492.253115"  fill="none" stroke ="blue" stroke-width="1" />
<line x1="293.982936" y1="66.521771" x2="294.434861" y2="56.497063"  fill="none" stroke ="blue" stroke-width="1" />
<line x1="296.331982" y1="75.544510" x2="294.220532" y2="67.574034"  fill="none" stroke ="blue" stroke-width="1" />
<line x1="670.309304" y1="421.580551" x2="676.084630" y2="435.253049"  fill="none" stroke ="blue" stroke-width="1" />
<line x1="307.769223" y1="31.927047" x2="321.396581" y2="23.335955"  fill="none" stroke ="blue" stroke-width="1" />
<line x1="322.346567" y1="23.006488" x2="333.511024" y2="19.535458"  fill="none" stroke ="blue" stroke-width="1" />
<line x1="184.411464" y1="388.967890" x2="203.485401" y2="392.577153"  fill="none" stroke ="blue" stroke-width="1" />
<line x1="204.613710" y1="393.177781" x2="218.632369" y2="398.124906"  fill="none" stroke ="blue" stroke-width="1" />
</svg>
