<?xml version="1.0" standalone="no"?>
<!DOCTYPE svg PUBLIC "-//W3C//DTD SVG 1.1//EN"
 "http://www.w3.org/Graphics/SVG/1.1/DTD/svg11.dtd">
<svg width="2000px" height="2000px" version="1.1"
 xmlns="http://www.w3.org/2000/svg" xmlns:xlink="http://www.w3.org/1999/xlink">
<path d="M 1338.921020,350.523423 A1105.102236,1105.102236 0.000000 0,1 1413.808493,560.321741" fill="none" stroke ="red" stroke-width="1" />
<path d="M 1413.808493,1436.678259 A1105.102236,1105.102236 0.000000 0,1 1338.921020,1646.476577" fill="none" stroke ="red" stroke-width="1" />
<path d="M 1391.287987,1559.571892 A866.787097,866.787097 0.000000 0,1 1349.794586,1657.393419" fill="none" stroke ="red" stroke-width="1" />
<path d="M 1347.591994,334.670688 A1030.865227,1030.865227 0.000000 0,1 1402.031615,468.339996" fill="none" stroke ="red" stroke-width="1" />
<path d="M 601.873067,446.920563 A1136.737339,1136.737339 0.000000 0,1 651.254725,331.057286" fill="none" stroke ="red" stroke-width="1" />
<path d="M 431.739021,624.037032 A1220.796203,1220.796203 0.000000 0,1 560.246751,582.916100" fill="none" stroke ="red" stroke-width="1" />
<path d="M 1499.735872,600.778411 A1222.951441,1222.951441 0.000000 0,1 1606.159764,640.126217" fill="none" stroke ="red" stroke-width="1" />
<path d="M 1925.250040,872.915281 A264.753904,264.753904 0.000000 0,1 1955.834372,963.233175" fill="none" stroke ="red" stroke-width="1" />
<path d="M 1648.724972,1338.389730 A892.231739,892.231739 0.000000 0,1 1590.284257,1363.609769" fill="none" stroke ="red" stroke-width="1" />
<path d="M 451.412212,1380.917775 A1126.520855,1126.520855 0.000000 0,1 341.538218,1334.917929" fill="none" stroke ="red" stroke-width="1" />
<path d="M 1635.601679,1360.173502 A983.719600,983.719600 0.000000 0,1 1528.595878,1401.812882" fill="none" stroke ="red" stroke-width="1" />
<path d="M 468.383276,1401.891571 A1020.739587,1020.739587 0.000000 0,1 363.625704,1361.164765" fill="none" stroke ="red" stroke-width="1" />
<path d="M 1912.280542,879.891863 A257.118244,257.118244 0.000000 0,1 1943.056119,976.160738" fill="none" stroke ="red" stroke-width="1" />
<path d="M 42.050956,957.224189 A266.306887,266.306887 0.000000 0,1 64.918609,886.408106" fill="none" stroke ="red" stroke-width="1" />
<line x1="981.500000" y1="39.503779" x2="1016.500000" y2="39.503779"  fill="none" stroke ="blue" stroke-width="1" />
<line x1="971.490842" y1="40.538171" x2="979.509158" y2="40.461829"  fill="none" stroke ="blue" stroke-width="1" />
<line x1="1018.490842" y1="40.461829" x2="1026.509158" y2="40.538171"  fill="none" stroke ="blue" stroke-width="1" />
<line x1="1004.500000" y1="53.511334" x2="993.500000" y2="53.511334"  fill="none" stroke ="blue" stroke-width="1" />
<line x1="991.503372" y1="54.475798" x2="977.496628" y2="54.524202"  fill="none" stroke ="blue" stroke-width="1" />
<line x1="1020.503372" y1="54.524202" x2="1006.496628" y2="54.475798"  fill="none" stroke ="blue" stroke-width="1" />
<line x1="956.500000" y1="515.501582" x2="1041.500000" y2="515.501582"  fill="none" stroke ="blue" stroke-width="1" />
<line x1="924.499185" y1="516.512382" x2="954.500815" y2="516.487618"  fill="none" stroke ="blue" stroke-width="1" />
<line x1="1043.499185" y1="516.487618" x2="1073.500815" y2="516.512382"  fill="none" stroke ="blue" stroke-width="1" />
<line x1="902.498251" y1="517.517806" x2="922.501749" y2="517.482194"  fill="none" stroke ="blue" stroke-width="1" />
<line x1="1075.498251" y1="517.482194" x2="1095.501749" y2="517.517806"  fill="none" stroke ="blue" stroke-width="1" />
<line x1="884.497358" y1="518.521608" x2="900.502642" y2="518.478392"  fill="none" stroke ="blue" stroke-width="1" />
<line x1="1097.497358" y1="518.478392" x2="1113.502642" y2="518.521608"  fill="none" stroke ="blue" stroke-width="1" />
<line x1="869.496142" y1="519.525754" x2="882.503858" y2="519.474246"  fill="none" stroke ="blue" stroke-width="1" />
<line x1="1115.496142" y1="519.474246" x2="1128.503858" y2="519.525754"  fill="none" stroke ="blue" stroke-width="1" />
<line x1="855.495542" y1="520.527524" x2="867.504458" y2="520.472476"  fill="none" stroke ="blue" stroke-width="1" />
<line x1="1130.495542" y1="520.472476" x2="1142.504458" y2="520.527524"  fill="none" stroke ="blue" stroke-width="1" />
<line x1="843.493823" y1="521.531944" x2="853.506177" y2="521.468056"  fill="none" stroke ="blue" stroke-width="1" />
<line x1="1144.493823" y1="521.468056" x2="1154.506177" y2="521.531944"  fill="none" stroke ="blue" stroke-width="1" />
<line x1="831.493823" y1="522.531944" x2="841.506177" y2="522.468056"  fill="none" stroke ="blue" stroke-width="1" />
<line x1="1156.493823" y1="522.468056" x2="1166.506177" y2="522.531944"  fill="none" stroke ="blue" stroke-width="1" />
<line x1="820.492556" y1="523.534764" x2="829.507444" y2="523.465236"  fill="none" stroke ="blue" stroke-width="1" />
<line x1="1168.492556" y1="523.465236" x2="1177.507444" y2="523.534764"  fill="none" stroke ="blue" stroke-width="1" />
<line x1="810.490842" y1="524.538171" x2="818.509158" y2="524.461829"  fill="none" stroke ="blue" stroke-width="1" />
<line x1="1179.490842" y1="524.461829" x2="1187.509158" y2="524.538171"  fill="none" stroke ="blue" stroke-width="1" />
<line x1="800.490842" y1="525.538171" x2="808.509158" y2="525.461829"  fill="none" stroke ="blue" stroke-width="1" />
<line x1="1189.490842" y1="525.461829" x2="1197.509158" y2="525.538171"  fill="none" stroke ="blue" stroke-width="1" />
<line x1="1056.500000" y1="530.501173" x2="941.500000" y2="530.501173"  fill="none" stroke ="blue" stroke-width="1" />
<line x1="939.501243" y1="531.484852" x2="915.498757" y2="531.515148"  fill="none" stroke ="blue" stroke-width="1" />
<line x1="1082.501243" y1="531.515148" x2="1058.498757" y2="531.484852"  fill="none" stroke ="blue" stroke-width="1" />
<line x1="913.502126" y1="532.480479" x2="895.497874" y2="532.519521"  fill="none" stroke ="blue" stroke-width="1" />
<line x1="1102.502126" y1="532.519521" x2="1084.497874" y2="532.480479"  fill="none" stroke ="blue" stroke-width="1" />
<line x1="893.502973" y1="533.477170" x2="878.497027" y2="533.522830"  fill="none" stroke ="blue" stroke-width="1" />
<line x1="1119.502973" y1="533.522830" x2="1104.497027" y2="533.477170"  fill="none" stroke ="blue" stroke-width="1" />
<line x1="876.504458" y1="534.472476" x2="864.495542" y2="534.527524"  fill="none" stroke ="blue" stroke-width="1" />
<line x1="1133.504458" y1="534.527524" x2="1121.495542" y2="534.472476"  fill="none" stroke ="blue" stroke-width="1" />
<line x1="862.504458" y1="535.472476" x2="850.495542" y2="535.527524"  fill="none" stroke ="blue" stroke-width="1" />
<line x1="1147.504458" y1="535.527524" x2="1135.495542" y2="535.472476"  fill="none" stroke ="blue" stroke-width="1" />
<line x1="848.506177" y1="536.468056" x2="838.493823" y2="536.531944"  fill="none" stroke ="blue" stroke-width="1" />
<line x1="1159.506177" y1="536.531944" x2="1149.493823" y2="536.468056"  fill="none" stroke ="blue" stroke-width="1" />
<line x1="836.507444" y1="537.465236" x2="827.492556" y2="537.534764"  fill="none" stroke ="blue" stroke-width="1" />
<line x1="1170.507444" y1="537.534764" x2="1161.492556" y2="537.465236"  fill="none" stroke ="blue" stroke-width="1" />
<line x1="825.509158" y1="538.461829" x2="817.490842" y2="538.538171"  fill="none" stroke ="blue" stroke-width="1" />
<line x1="1180.509158" y1="538.538171" x2="1172.490842" y2="538.461829"  fill="none" stroke ="blue" stroke-width="1" />
<line x1="815.509158" y1="539.461829" x2="807.490842" y2="539.538171"  fill="none" stroke ="blue" stroke-width="1" />
<line x1="1190.509158" y1="539.538171" x2="1182.490842" y2="539.461829"  fill="none" stroke ="blue" stroke-width="1" />
<line x1="805.509158" y1="540.461829" x2="797.490842" y2="540.538171"  fill="none" stroke ="blue" stroke-width="1" />
<line x1="1200.509158" y1="540.538171" x2="1192.490842" y2="540.461829"  fill="none" stroke ="blue" stroke-width="1" />
<line x1="540.538171" y1="797.490842" x2="540.461829" y2="805.509158"  fill="none" stroke ="blue" stroke-width="1" />
<line x1="1457.538171" y1="805.509158" x2="1457.461829" y2="797.490842"  fill="none" stroke ="blue" stroke-width="1" />
<line x1="525.461829" y1="808.509158" x2="525.538171" y2="800.490842"  fill="none" stroke ="blue" stroke-width="1" />
<line x1="1472.461829" y1="800.490842" x2="1472.538171" y2="808.509158"  fill="none" stroke ="blue" stroke-width="1" />
<line x1="539.538171" y1="807.490842" x2="539.461829" y2="815.509158"  fill="none" stroke ="blue" stroke-width="1" />
<line x1="1458.538171" y1="815.509158" x2="1458.461829" y2="807.490842"  fill="none" stroke ="blue" stroke-width="1" />
<line x1="524.461829" y1="818.509158" x2="524.538171" y2="810.490842"  fill="none" stroke ="blue" stroke-width="1" />
<line x1="1473.461829" y1="810.490842" x2="1473.538171" y2="818.509158"  fill="none" stroke ="blue" stroke-width="1" />
<line x1="538.538171" y1="817.490842" x2="538.461829" y2="825.509158"  fill="none" stroke ="blue" stroke-width="1" />
<line x1="1459.538171" y1="825.509158" x2="1459.461829" y2="817.490842"  fill="none" stroke ="blue" stroke-width="1" />
<line x1="523.465236" y1="829.507444" x2="523.534764" y2="820.492556"  fill="none" stroke ="blue" stroke-width="1" />
<line x1="1474.465236" y1="820.492556" x2="1474.534764" y2="829.507444"  fill="none" stroke ="blue" stroke-width="1" />
<line x1="537.534764" y1="827.492556" x2="537.465236" y2="836.507444"  fill="none" stroke ="blue" stroke-width="1" />
<line x1="1460.534764" y1="836.507444" x2="1460.465236" y2="827.492556"  fill="none" stroke ="blue" stroke-width="1" />
<line x1="522.468056" y1="841.506177" x2="522.531944" y2="831.493823"  fill="none" stroke ="blue" stroke-width="1" />
<line x1="1475.468056" y1="831.493823" x2="1475.531944" y2="841.506177"  fill="none" stroke ="blue" stroke-width="1" />
<line x1="536.531944" y1="838.493823" x2="536.468056" y2="848.506177"  fill="none" stroke ="blue" stroke-width="1" />
<line x1="1461.531944" y1="848.506177" x2="1461.468056" y2="838.493823"  fill="none" stroke ="blue" stroke-width="1" />
<line x1="521.468056" y1="853.506177" x2="521.531944" y2="843.493823"  fill="none" stroke ="blue" stroke-width="1" />
<line x1="1476.468056" y1="843.493823" x2="1476.531944" y2="853.506177"  fill="none" stroke ="blue" stroke-width="1" />
<line x1="535.527524" y1="850.495542" x2="535.472476" y2="862.504458"  fill="none" stroke ="blue" stroke-width="1" />
<line x1="1462.527524" y1="862.504458" x2="1462.472476" y2="850.495542"  fill="none" stroke ="blue" stroke-width="1" />
<line x1="520.472476" y1="867.504458" x2="520.527524" y2="855.495542"  fill="none" stroke ="blue" stroke-width="1" />
<line x1="1477.472476" y1="855.495542" x2="1477.527524" y2="867.504458"  fill="none" stroke ="blue" stroke-width="1" />
<line x1="534.527524" y1="864.495542" x2="534.472476" y2="876.504458"  fill="none" stroke ="blue" stroke-width="1" />
<line x1="1463.527524" y1="876.504458" x2="1463.472476" y2="864.495542"  fill="none" stroke ="blue" stroke-width="1" />
<line x1="519.474246" y1="882.503858" x2="519.525754" y2="869.496142"  fill="none" stroke ="blue" stroke-width="1" />
<line x1="1478.474246" y1="869.496142" x2="1478.525754" y2="882.503858"  fill="none" stroke ="blue" stroke-width="1" />
<line x1="533.522830" y1="878.497027" x2="533.477170" y2="893.502973"  fill="none" stroke ="blue" stroke-width="1" />
<line x1="1464.522830" y1="893.502973" x2="1464.477170" y2="878.497027"  fill="none" stroke ="blue" stroke-width="1" />
<line x1="518.478392" y1="900.502642" x2="518.521608" y2="884.497358"  fill="none" stroke ="blue" stroke-width="1" />
<line x1="1479.478392" y1="884.497358" x2="1479.521608" y2="900.502642"  fill="none" stroke ="blue" stroke-width="1" />
<line x1="532.519521" y1="895.497874" x2="532.480479" y2="913.502126"  fill="none" stroke ="blue" stroke-width="1" />
<line x1="1465.519521" y1="913.502126" x2="1465.480479" y2="895.497874"  fill="none" stroke ="blue" stroke-width="1" />
<line x1="517.482194" y1="922.501749" x2="517.517806" y2="902.498251"  fill="none" stroke ="blue" stroke-width="1" />
<line x1="1480.482194" y1="902.498251" x2="1480.517806" y2="922.501749"  fill="none" stroke ="blue" stroke-width="1" />
<line x1="531.515148" y1="915.498757" x2="531.484852" y2="939.501243"  fill="none" stroke ="blue" stroke-width="1" />
<line x1="1466.515148" y1="939.501243" x2="1466.484852" y2="915.498757"  fill="none" stroke ="blue" stroke-width="1" />
<line x1="516.487618" y1="954.500815" x2="516.512382" y2="924.499185"  fill="none" stroke ="blue" stroke-width="1" />
<line x1="1481.487618" y1="924.499185" x2="1481.512382" y2="954.500815"  fill="none" stroke ="blue" stroke-width="1" />
<line x1="530.501173" y1="941.500000" x2="530.501173" y2="1056.500000"  fill="none" stroke ="blue" stroke-width="1" />
<line x1="1467.498827" y1="1056.500000" x2="1467.498827" y2="941.500000"  fill="none" stroke ="blue" stroke-width="1" />
<line x1="515.501582" y1="1041.500000" x2="515.501582" y2="956.500000"  fill="none" stroke ="blue" stroke-width="1" />
<line x1="1482.498418" y1="956.500000" x2="1482.498418" y2="1041.500000"  fill="none" stroke ="blue" stroke-width="1" />
<line x1="40.461829" y1="979.509158" x2="40.538171" y2="971.490842"  fill="none" stroke ="blue" stroke-width="1" />
<line x1="1957.461829" y1="971.490842" x2="1957.538171" y2="979.509158"  fill="none" stroke ="blue" stroke-width="1" />
<line x1="54.524202" y1="977.496628" x2="54.475798" y2="991.503372"  fill="none" stroke ="blue" stroke-width="1" />
<line x1="1943.524202" y1="991.503372" x2="1943.475798" y2="977.496628"  fill="none" stroke ="blue" stroke-width="1" />
<line x1="39.503779" y1="1016.500000" x2="39.503779" y2="981.500000"  fill="none" stroke ="blue" stroke-width="1" />
<line x1="1958.496221" y1="981.500000" x2="1958.496221" y2="1016.500000"  fill="none" stroke ="blue" stroke-width="1" />
<line x1="53.511334" y1="993.500000" x2="53.511334" y2="1004.500000"  fill="none" stroke ="blue" stroke-width="1" />
<line x1="1944.488666" y1="1004.500000" x2="1944.488666" y2="993.500000"  fill="none" stroke ="blue" stroke-width="1" />
<line x1="54.475798" y1="1006.496628" x2="54.524202" y2="1020.503372"  fill="none" stroke ="blue" stroke-width="1" />
<line x1="1943.475798" y1="1020.503372" x2="1943.524202" y2="1006.496628"  fill="none" stroke ="blue" stroke-width="1" />
<line x1="40.538171" y1="1026.509158" x2="40.461829" y2="1018.490842"  fill="none" stroke ="blue" stroke-width="1" />
<line x1="1957.538171" y1="1018.490842" x2="1957.461829" y2="1026.509158"  fill="none" stroke ="blue" stroke-width="1" />
<line x1="516.512382" y1="1073.500815" x2="516.487618" y2="1043.499185"  fill="none" stroke ="blue" stroke-width="1" />
<line x1="1481.512382" y1="1043.499185" x2="1481.487618" y2="1073.500815"  fill="none" stroke ="blue" stroke-width="1" />
<line x1="531.484852" y1="1058.498757" x2="531.515148" y2="1082.501243"  fill="none" stroke ="blue" stroke-width="1" />
<line x1="1466.484852" y1="1082.501243" x2="1466.515148" y2="1058.498757"  fill="none" stroke ="blue" stroke-width="1" />
<line x1="517.517806" y1="1095.501749" x2="517.482194" y2="1075.498251"  fill="none" stroke ="blue" stroke-width="1" />
<line x1="1480.517806" y1="1075.498251" x2="1480.482194" y2="1095.501749"  fill="none" stroke ="blue" stroke-width="1" />
<line x1="532.480479" y1="1084.497874" x2="532.519521" y2="1102.502126"  fill="none" stroke ="blue" stroke-width="1" />
<line x1="1465.480479" y1="1102.502126" x2="1465.519521" y2="1084.497874"  fill="none" stroke ="blue" stroke-width="1" />
<line x1="518.521608" y1="1113.502642" x2="518.478392" y2="1097.497358"  fill="none" stroke ="blue" stroke-width="1" />
<line x1="1479.521608" y1="1097.497358" x2="1479.478392" y2="1113.502642"  fill="none" stroke ="blue" stroke-width="1" />
<line x1="533.477170" y1="1104.497027" x2="533.522830" y2="1119.502973"  fill="none" stroke ="blue" stroke-width="1" />
<line x1="1464.477170" y1="1119.502973" x2="1464.522830" y2="1104.497027"  fill="none" stroke ="blue" stroke-width="1" />
<line x1="519.525754" y1="1128.503858" x2="519.474246" y2="1115.496142"  fill="none" stroke ="blue" stroke-width="1" />
<line x1="1478.525754" y1="1115.496142" x2="1478.474246" y2="1128.503858"  fill="none" stroke ="blue" stroke-width="1" />
<line x1="534.472476" y1="1121.495542" x2="534.527524" y2="1133.504458"  fill="none" stroke ="blue" stroke-width="1" />
<line x1="1463.472476" y1="1133.504458" x2="1463.527524" y2="1121.495542"  fill="none" stroke ="blue" stroke-width="1" />
<line x1="520.527524" y1="1142.504458" x2="520.472476" y2="1130.495542"  fill="none" stroke ="blue" stroke-width="1" />
<line x1="1477.527524" y1="1130.495542" x2="1477.472476" y2="1142.504458"  fill="none" stroke ="blue" stroke-width="1" />
<line x1="535.472476" y1="1135.495542" x2="535.527524" y2="1147.504458"  fill="none" stroke ="blue" stroke-width="1" />
<line x1="1462.472476" y1="1147.504458" x2="1462.527524" y2="1135.495542"  fill="none" stroke ="blue" stroke-width="1" />
<line x1="521.531944" y1="1154.506177" x2="521.468056" y2="1144.493823"  fill="none" stroke ="blue" stroke-width="1" />
<line x1="1476.531944" y1="1144.493823" x2="1476.468056" y2="1154.506177"  fill="none" stroke ="blue" stroke-width="1" />
<line x1="536.468056" y1="1149.493823" x2="536.531944" y2="1159.506177"  fill="none" stroke ="blue" stroke-width="1" />
<line x1="1461.468056" y1="1159.506177" x2="1461.531944" y2="1149.493823"  fill="none" stroke ="blue" stroke-width="1" />
<line x1="522.531944" y1="1166.506177" x2="522.468056" y2="1156.493823"  fill="none" stroke ="blue" stroke-width="1" />
<line x1="1475.531944" y1="1156.493823" x2="1475.468056" y2="1166.506177"  fill="none" stroke ="blue" stroke-width="1" />
<line x1="537.465236" y1="1161.492556" x2="537.534764" y2="1170.507444"  fill="none" stroke ="blue" stroke-width="1" />
<line x1="1460.465236" y1="1170.507444" x2="1460.534764" y2="1161.492556"  fill="none" stroke ="blue" stroke-width="1" />
<line x1="523.534764" y1="1177.507444" x2="523.465236" y2="1168.492556"  fill="none" stroke ="blue" stroke-width="1" />
<line x1="1474.534764" y1="1168.492556" x2="1474.465236" y2="1177.507444"  fill="none" stroke ="blue" stroke-width="1" />
<line x1="538.461829" y1="1172.490842" x2="538.538171" y2="1180.509158"  fill="none" stroke ="blue" stroke-width="1" />
<line x1="1459.461829" y1="1180.509158" x2="1459.538171" y2="1172.490842"  fill="none" stroke ="blue" stroke-width="1" />
<line x1="524.538171" y1="1187.509158" x2="524.461829" y2="1179.490842"  fill="none" stroke ="blue" stroke-width="1" />
<line x1="1473.538171" y1="1179.490842" x2="1473.461829" y2="1187.509158"  fill="none" stroke ="blue" stroke-width="1" />
<line x1="539.461829" y1="1182.490842" x2="539.538171" y2="1190.509158"  fill="none" stroke ="blue" stroke-width="1" />
<line x1="1458.461829" y1="1190.509158" x2="1458.538171" y2="1182.490842"  fill="none" stroke ="blue" stroke-width="1" />
<line x1="525.538171" y1="1197.509158" x2="525.461829" y2="1189.490842"  fill="none" stroke ="blue" stroke-width="1" />
<line x1="1472.538171" y1="1189.490842" x2="1472.461829" y2="1197.509158"  fill="none" stroke ="blue" stroke-width="1" />
<line x1="540.461829" y1="1192.490842" x2="540.538171" y2="1200.509158"  fill="none" stroke ="blue" stroke-width="1" />
<line x1="1457.461829" y1="1200.509158" x2="1457.538171" y2="1192.490842"  fill="none" stroke ="blue" stroke-width="1" />
<line x1="797.490842" y1="1457.461829" x2="805.509158" y2="1457.538171"  fill="none" stroke ="blue" stroke-width="1" />
<line x1="1192.490842" y1="1457.538171" x2="1200.509158" y2="1457.461829"  fill="none" stroke ="blue" stroke-width="1" />
<line x1="807.490842" y1="1458.461829" x2="815.509158" y2="1458.538171"  fill="none" stroke ="blue" stroke-width="1" />
<line x1="1182.490842" y1="1458.538171" x2="1190.509158" y2="1458.461829"  fill="none" stroke ="blue" stroke-width="1" />
<line x1="817.490842" y1="1459.461829" x2="825.509158" y2="1459.538171"  fill="none" stroke ="blue" stroke-width="1" />
<line x1="1172.490842" y1="1459.538171" x2="1180.509158" y2="1459.461829"  fill="none" stroke ="blue" stroke-width="1" />
<line x1="827.492556" y1="1460.465236" x2="836.507444" y2="1460.534764"  fill="none" stroke ="blue" stroke-width="1" />
<line x1="1161.492556" y1="1460.534764" x2="1170.507444" y2="1460.465236"  fill="none" stroke ="blue" stroke-width="1" />
<line x1="838.493823" y1="1461.468056" x2="848.506177" y2="1461.531944"  fill="none" stroke ="blue" stroke-width="1" />
<line x1="1149.493823" y1="1461.531944" x2="1159.506177" y2="1461.468056"  fill="none" stroke ="blue" stroke-width="1" />
<line x1="850.495542" y1="1462.472476" x2="862.504458" y2="1462.527524"  fill="none" stroke ="blue" stroke-width="1" />
<line x1="1135.495542" y1="1462.527524" x2="1147.504458" y2="1462.472476"  fill="none" stroke ="blue" stroke-width="1" />
<line x1="864.495542" y1="1463.472476" x2="876.504458" y2="1463.527524"  fill="none" stroke ="blue" stroke-width="1" />
<line x1="1121.495542" y1="1463.527524" x2="1133.504458" y2="1463.472476"  fill="none" stroke ="blue" stroke-width="1" />
<line x1="878.497027" y1="1464.477170" x2="893.502973" y2="1464.522830"  fill="none" stroke ="blue" stroke-width="1" />
<line x1="1104.497027" y1="1464.522830" x2="1119.502973" y2="1464.477170"  fill="none" stroke ="blue" stroke-width="1" />
<line x1="895.497874" y1="1465.480479" x2="913.502126" y2="1465.519521"  fill="none" stroke ="blue" stroke-width="1" />
<line x1="1084.497874" y1="1465.519521" x2="1102.502126" y2="1465.480479"  fill="none" stroke ="blue" stroke-width="1" />
<line x1="915.498757" y1="1466.484852" x2="939.501243" y2="1466.515148"  fill="none" stroke ="blue" stroke-width="1" />
<line x1="1058.498757" y1="1466.515148" x2="1082.501243" y2="1466.484852"  fill="none" stroke ="blue" stroke-width="1" />
<line x1="941.500000" y1="1467.498827" x2="1056.500000" y2="1467.498827"  fill="none" stroke ="blue" stroke-width="1" />
<line x1="808.509158" y1="1472.538171" x2="800.490842" y2="1472.461829"  fill="none" stroke ="blue" stroke-width="1" />
<line x1="1197.509158" y1="1472.461829" x2="1189.490842" y2="1472.538171"  fill="none" stroke ="blue" stroke-width="1" />
<line x1="818.509158" y1="1473.538171" x2="810.490842" y2="1473.461829"  fill="none" stroke ="blue" stroke-width="1" />
<line x1="1187.509158" y1="1473.461829" x2="1179.490842" y2="1473.538171"  fill="none" stroke ="blue" stroke-width="1" />
<line x1="829.507444" y1="1474.534764" x2="820.492556" y2="1474.465236"  fill="none" stroke ="blue" stroke-width="1" />
<line x1="1177.507444" y1="1474.465236" x2="1168.492556" y2="1474.534764"  fill="none" stroke ="blue" stroke-width="1" />
<line x1="841.506177" y1="1475.531944" x2="831.493823" y2="1475.468056"  fill="none" stroke ="blue" stroke-width="1" />
<line x1="1166.506177" y1="1475.468056" x2="1156.493823" y2="1475.531944"  fill="none" stroke ="blue" stroke-width="1" />
<line x1="853.506177" y1="1476.531944" x2="843.493823" y2="1476.468056"  fill="none" stroke ="blue" stroke-width="1" />
<line x1="1154.506177" y1="1476.468056" x2="1144.493823" y2="1476.531944"  fill="none" stroke ="blue" stroke-width="1" />
<line x1="867.504458" y1="1477.527524" x2="855.495542" y2="1477.472476"  fill="none" stroke ="blue" stroke-width="1" />
<line x1="1142.504458" y1="1477.472476" x2="1130.495542" y2="1477.527524"  fill="none" stroke ="blue" stroke-width="1" />
<line x1="882.503858" y1="1478.525754" x2="869.496142" y2="1478.474246"  fill="none" stroke ="blue" stroke-width="1" />
<line x1="1128.503858" y1="1478.474246" x2="1115.496142" y2="1478.525754"  fill="none" stroke ="blue" stroke-width="1" />
<line x1="900.502642" y1="1479.521608" x2="884.497358" y2="1479.478392"  fill="none" stroke ="blue" stroke-width="1" />
<line x1="1113.502642" y1="1479.478392" x2="1097.497358" y2="1479.521608"  fill="none" stroke ="blue" stroke-width="1" />
<line x1="922.501749" y1="1480.517806" x2="902.498251" y2="1480.482194"  fill="none" stroke ="blue" stroke-width="1" />
<line x1="1095.501749" y1="1480.482194" x2="1075.498251" y2="1480.517806"  fill="none" stroke ="blue" stroke-width="1" />
<line x1="954.500815" y1="1481.512382" x2="924.499185" y2="1481.487618"  fill="none" stroke ="blue" stroke-width="1" />
<line x1="1073.500815" y1="1481.487618" x2="1043.499185" y2="1481.512382"  fill="none" stroke ="blue" stroke-width="1" />
<line x1="1041.500000" y1="1482.498418" x2="956.500000" y2="1482.498418"  fill="none" stroke ="blue" stroke-width="1" />
<line x1="977.496628" y1="1943.475798" x2="991.503372" y2="1943.524202"  fill="none" stroke ="blue" stroke-width="1" />
<line x1="1006.496628" y1="1943.524202" x2="1020.503372" y2="1943.475798"  fill="none" stroke ="blue" stroke-width="1" />
<line x1="993.500000" y1="1944.488666" x2="1004.500000" y2="1944.488666"  fill="none" stroke ="blue" stroke-width="1" />
<line x1="979.509158" y1="1957.538171" x2="971.490842" y2="1957.461829"  fill="none" stroke ="blue" stroke-width="1" />
<line x1="1026.509158" y1="1957.461829" x2="1018.490842" y2="1957.538171"  fill="none" stroke ="blue" stroke-width="1" />
<line x1="1016.500000" y1="1958.496221" x2="981.500000" y2="1958.496221"  fill="none" stroke ="blue" stroke-width="1" />
<line x1="834.584258" y1="94.916732" x2="891.715573" y2="61.872715"  fill="none" stroke ="blue" stroke-width="1" />
<line x1="780.726503" y1="140.766451" x2="834.860912" y2="94.748198"  fill="none" stroke ="blue" stroke-width="1" />
<line x1="732.427566" y1="196.437016" x2="780.392440" y2="141.276015"  fill="none" stroke ="blue" stroke-width="1" />
<line x1="682.667207" y1="270.611623" x2="732.099027" y2="196.564746"  fill="none" stroke ="blue" stroke-width="1" />
<line x1="650.352467" y1="331.957288" x2="682.943624" y2="271.201544"  fill="none" stroke ="blue" stroke-width="1" />
<line x1="1106.284427" y1="61.872715" x2="1163.415742" y2="94.916732"  fill="none" stroke ="blue" stroke-width="1" />
<line x1="1163.139088" y1="94.748198" x2="1217.273497" y2="140.766451"  fill="none" stroke ="blue" stroke-width="1" />
<line x1="1217.607560" y1="141.276015" x2="1265.572434" y2="196.437016"  fill="none" stroke ="blue" stroke-width="1" />
<line x1="1265.900973" y1="196.564746" x2="1315.332793" y2="270.611623"  fill="none" stroke ="blue" stroke-width="1" />
<line x1="1315.056376" y1="271.201544" x2="1347.647533" y2="331.957288"  fill="none" stroke ="blue" stroke-width="1" />
<line x1="889.759757" y1="78.921492" x2="835.269210" y2="112.502869"  fill="none" stroke ="blue" stroke-width="1" />
<line x1="834.909436" y1="112.840896" x2="783.203920" y2="159.169558"  fill="none" stroke ="blue" stroke-width="1" />
<line x1="783.327334" y1="159.191893" x2="737.329631" y2="214.193814"  fill="none" stroke ="blue" stroke-width="1" />
<line x1="737.460992" y1="214.473942" x2="701.411149" y2="268.440647"  fill="none" stroke ="blue" stroke-width="1" />
<line x1="702.069601" y1="266.733713" x2="659.150781" y2="346.848634"  fill="none" stroke ="blue" stroke-width="1" />
<line x1="1162.730790" y1="112.502869" x2="1108.240243" y2="78.921492"  fill="none" stroke ="blue" stroke-width="1" />
<line x1="1214.796080" y1="159.169558" x2="1163.090564" y2="112.840896"  fill="none" stroke ="blue" stroke-width="1" />
<line x1="1260.670369" y1="214.193814" x2="1214.672666" y2="159.191893"  fill="none" stroke ="blue" stroke-width="1" />
<line x1="1296.588851" y1="268.440647" x2="1260.539008" y2="214.473942"  fill="none" stroke ="blue" stroke-width="1" />
<line x1="1338.849219" y1="346.848634" x2="1295.930399" y2="266.733713"  fill="none" stroke ="blue" stroke-width="1" />
<line x1="659.020772" y1="348.732172" x2="639.672548" y2="392.131103"  fill="none" stroke ="blue" stroke-width="1" />
<line x1="253.783955" y1="693.017107" x2="331.854996" y2="650.146478"  fill="none" stroke ="blue" stroke-width="1" />
<line x1="182.559951" y1="743.171790" x2="253.913284" y2="692.671019"  fill="none" stroke ="blue" stroke-width="1" />
<line x1="1666.145004" y1="650.146478" x2="1744.216045" y2="693.017107"  fill="none" stroke ="blue" stroke-width="1" />
<line x1="1744.086716" y1="692.671019" x2="1815.440049" y2="743.171790"  fill="none" stroke ="blue" stroke-width="1" />
<line x1="346.893782" y1="659.240603" x2="271.793725" y2="699.171680"  fill="none" stroke ="blue" stroke-width="1" />
<line x1="272.043892" y1="698.829327" x2="200.957811" y2="747.173178"  fill="none" stroke ="blue" stroke-width="1" />
<line x1="200.593818" y1="747.389530" x2="141.630925" y2="800.644957"  fill="none" stroke ="blue" stroke-width="1" />
<line x1="141.539633" y1="801.346376" x2="102.891749" y2="848.818927"  fill="none" stroke ="blue" stroke-width="1" />
<line x1="103.341686" y1="848.822034" x2="79.269190" y2="889.950210"  fill="none" stroke ="blue" stroke-width="1" />
<line x1="1726.206275" y1="699.171680" x2="1651.106218" y2="659.240603"  fill="none" stroke ="blue" stroke-width="1" />
<line x1="1797.042189" y1="747.173178" x2="1725.956108" y2="698.829327"  fill="none" stroke ="blue" stroke-width="1" />
<line x1="1856.369075" y1="800.644957" x2="1797.406182" y2="747.389530"  fill="none" stroke ="blue" stroke-width="1" />
<line x1="1895.108251" y1="848.818927" x2="1856.460367" y2="801.346376"  fill="none" stroke ="blue" stroke-width="1" />
<line x1="1918.730810" y1="889.950210" x2="1894.658314" y2="848.822034"  fill="none" stroke ="blue" stroke-width="1" />
<line x1="63.963709" y1="887.768046" x2="91.841164" y2="839.541114"  fill="none" stroke ="blue" stroke-width="1" />
<line x1="92.175057" y1="839.240927" x2="126.447081" y2="796.255095"  fill="none" stroke ="blue" stroke-width="1" />
<line x1="126.597092" y1="795.603461" x2="182.321442" y2="743.309728"  fill="none" stroke ="blue" stroke-width="1" />
<line x1="1905.956046" y1="839.236004" x2="1934.046934" y2="887.762271"  fill="none" stroke ="blue" stroke-width="1" />
<line x1="1858.390445" y1="781.754807" x2="1906.134886" y2="838.805555"  fill="none" stroke ="blue" stroke-width="1" />
<line x1="1815.250291" y1="743.662647" x2="1858.044982" y2="782.007817"  fill="none" stroke ="blue" stroke-width="1" />
<line x1="1947.730714" y1="1075.020110" x2="1926.413014" y2="1125.463239"  fill="none" stroke ="blue" stroke-width="1" />
<line x1="1926.222240" y1="1125.974835" x2="1892.852308" y2="1176.731624"  fill="none" stroke ="blue" stroke-width="1" />
<line x1="1892.850815" y1="1176.907622" x2="1847.055571" y2="1227.094461"  fill="none" stroke ="blue" stroke-width="1" />
<line x1="1846.365645" y1="1227.339589" x2="1793.558159" y2="1271.569438"  fill="none" stroke ="blue" stroke-width="1" />
<line x1="1793.355407" y1="1271.808549" x2="1723.487870" y2="1317.481445"  fill="none" stroke ="blue" stroke-width="1" />
<line x1="1723.662877" y1="1316.804624" x2="1666.029537" y2="1347.620105"  fill="none" stroke ="blue" stroke-width="1" />
<line x1="1957.945337" y1="1026.383545" x2="1947.828461" y2="1074.568963"  fill="none" stroke ="blue" stroke-width="1" />
<line x1="94.916732" y1="1163.415742" x2="61.872715" y2="1106.284427"  fill="none" stroke ="blue" stroke-width="1" />
<line x1="140.766451" y1="1217.273497" x2="94.748198" y2="1163.139088"  fill="none" stroke ="blue" stroke-width="1" />
<line x1="196.437016" y1="1265.572434" x2="141.276015" y2="1217.607560"  fill="none" stroke ="blue" stroke-width="1" />
<line x1="270.611623" y1="1315.332793" x2="196.564746" y2="1265.900973"  fill="none" stroke ="blue" stroke-width="1" />
<line x1="331.957288" y1="1347.647533" x2="271.201544" y2="1315.056376"  fill="none" stroke ="blue" stroke-width="1" />
<line x1="78.921492" y1="1108.240243" x2="112.502869" y2="1162.730790"  fill="none" stroke ="blue" stroke-width="1" />
<line x1="112.840896" y1="1163.090564" x2="159.169558" y2="1214.796080"  fill="none" stroke ="blue" stroke-width="1" />
<line x1="159.191893" y1="1214.672666" x2="214.193814" y2="1260.670369"  fill="none" stroke ="blue" stroke-width="1" />
<line x1="214.473942" y1="1260.539008" x2="268.440647" y2="1296.588851"  fill="none" stroke ="blue" stroke-width="1" />
<line x1="266.733713" y1="1295.930399" x2="346.848634" y2="1338.849219"  fill="none" stroke ="blue" stroke-width="1" />
<line x1="1885.510467" y1="1162.739137" x2="1919.094442" y2="1108.250037"  fill="none" stroke ="blue" stroke-width="1" />
<line x1="1838.830442" y1="1214.796080" x2="1885.159104" y2="1163.090564"  fill="none" stroke ="blue" stroke-width="1" />
<line x1="1783.806186" y1="1260.670369" x2="1838.808107" y2="1214.672666"  fill="none" stroke ="blue" stroke-width="1" />
<line x1="1729.559353" y1="1296.588851" x2="1783.526058" y2="1260.539008"  fill="none" stroke ="blue" stroke-width="1" />
<line x1="1651.151366" y1="1338.849219" x2="1731.266287" y2="1295.930399"  fill="none" stroke ="blue" stroke-width="1" />
<line x1="659.240603" y1="1651.106218" x2="699.171680" y2="1726.206275"  fill="none" stroke ="blue" stroke-width="1" />
<line x1="698.829327" y1="1725.956108" x2="747.173178" y2="1797.042189"  fill="none" stroke ="blue" stroke-width="1" />
<line x1="747.389530" y1="1797.406182" x2="800.644957" y2="1856.369075"  fill="none" stroke ="blue" stroke-width="1" />
<line x1="801.346376" y1="1856.460367" x2="848.818927" y2="1895.108251"  fill="none" stroke ="blue" stroke-width="1" />
<line x1="848.822034" y1="1894.658314" x2="889.950210" y2="1918.730810"  fill="none" stroke ="blue" stroke-width="1" />
<line x1="1298.854969" y1="1726.219829" x2="1338.759055" y2="1651.106372"  fill="none" stroke ="blue" stroke-width="1" />
<line x1="1250.826822" y1="1797.042189" x2="1299.170673" y2="1725.956108"  fill="none" stroke ="blue" stroke-width="1" />
<line x1="1197.355043" y1="1856.369075" x2="1250.610470" y2="1797.406182"  fill="none" stroke ="blue" stroke-width="1" />
<line x1="1149.181073" y1="1895.108251" x2="1196.653624" y2="1856.460367"  fill="none" stroke ="blue" stroke-width="1" />
<line x1="1108.049790" y1="1918.730810" x2="1149.177966" y2="1894.658314"  fill="none" stroke ="blue" stroke-width="1" />
<line x1="1347.856181" y1="1666.147150" x2="1305.852058" y2="1742.789062"  fill="none" stroke ="blue" stroke-width="1" />
<line x1="1305.954265" y1="1743.114451" x2="1254.848854" y2="1815.452933"  fill="none" stroke ="blue" stroke-width="1" />
<line x1="693.017107" y1="1744.216045" x2="650.146478" y2="1666.145004"  fill="none" stroke ="blue" stroke-width="1" />
<line x1="743.171790" y1="1815.440049" x2="692.671019" y2="1744.086716"  fill="none" stroke ="blue" stroke-width="1" />
<line x1="887.762271" y1="1934.046934" x2="839.236004" y2="1905.956046"  fill="none" stroke ="blue" stroke-width="1" />
<line x1="838.805555" y1="1906.134886" x2="781.754807" y2="1858.390445"  fill="none" stroke ="blue" stroke-width="1" />
<line x1="782.007817" y1="1858.044982" x2="743.662647" y2="1815.250291"  fill="none" stroke ="blue" stroke-width="1" />
<line x1="1158.763996" y1="1905.956046" x2="1110.237729" y2="1934.046934"  fill="none" stroke ="blue" stroke-width="1" />
<line x1="1216.245193" y1="1858.390445" x2="1159.194445" y2="1906.134886"  fill="none" stroke ="blue" stroke-width="1" />
<line x1="1254.415910" y1="1815.220165" x2="1215.978380" y2="1858.031673"  fill="none" stroke ="blue" stroke-width="1" />
<line x1="587.532427" y1="493.843649" x2="602.912454" y2="447.637288"  fill="none" stroke ="blue" stroke-width="1" />
<line x1="1402.913378" y1="469.085084" x2="1430.969423" y2="564.655758"  fill="none" stroke ="blue" stroke-width="1" />
<line x1="623.912338" y1="430.634551" x2="590.752021" y2="532.255925"  fill="none" stroke ="blue" stroke-width="1" />
<line x1="567.309274" y1="564.728920" x2="587.273177" y2="494.152967"  fill="none" stroke ="blue" stroke-width="1" />
<line x1="584.217270" y1="562.100729" x2="697.638097" y2="539.183463"  fill="none" stroke ="blue" stroke-width="1" />
<line x1="464.239785" y1="596.618040" x2="565.565683" y2="566.722622"  fill="none" stroke ="blue" stroke-width="1" />
<line x1="364.517980" y1="634.958667" x2="464.776932" y2="596.216661"  fill="none" stroke ="blue" stroke-width="1" />
<line x1="693.532485" y1="554.657109" x2="580.208263" y2="578.089069"  fill="none" stroke ="blue" stroke-width="1" />
<line x1="578.155055" y1="580.219417" x2="555.762734" y2="687.554812"  fill="none" stroke ="blue" stroke-width="1" />
<line x1="1442.343697" y1="688.115639" x2="1419.850038" y2="580.218553"  fill="none" stroke ="blue" stroke-width="1" />
<line x1="539.183463" y1="697.638097" x2="562.100729" y2="584.217270"  fill="none" stroke ="blue" stroke-width="1" />
<line x1="1435.899271" y1="584.217270" x2="1458.816537" y2="697.638097"  fill="none" stroke ="blue" stroke-width="1" />
<line x1="431.703754" y1="623.608359" x2="346.847938" y2="659.326595"  fill="none" stroke ="blue" stroke-width="1" />
<line x1="1650.929729" y1="659.776511" x2="1605.507019" y2="639.484288"  fill="none" stroke ="blue" stroke-width="1" />
<line x1="1500.281115" y1="1396.880401" x2="1590.973905" y2="1364.841487"  fill="none" stroke ="blue" stroke-width="1" />
<line x1="562.100729" y1="1413.782730" x2="539.183463" y2="1300.361903"  fill="none" stroke ="blue" stroke-width="1" />
<line x1="1458.816537" y1="1300.361903" x2="1435.899271" y2="1413.782730"  fill="none" stroke ="blue" stroke-width="1" />
<line x1="1437.219956" y1="1414.519800" x2="1499.823918" y2="1396.633764"  fill="none" stroke ="blue" stroke-width="1" />
<line x1="554.657109" y1="1304.467515" x2="578.089069" y2="1417.791737"  fill="none" stroke ="blue" stroke-width="1" />
<line x1="1419.910931" y1="1417.791737" x2="1443.342891" y2="1304.467515"  fill="none" stroke ="blue" stroke-width="1" />
<line x1="1528.914916" y1="1402.913378" x2="1433.344242" y2="1430.969423"  fill="none" stroke ="blue" stroke-width="1" />
<line x1="1309.884361" y1="1442.343697" x2="1417.781447" y2="1419.850038"  fill="none" stroke ="blue" stroke-width="1" />
<line x1="564.655758" y1="1430.969423" x2="469.085084" y2="1402.913378"  fill="none" stroke ="blue" stroke-width="1" />
<line x1="1413.782730" y1="1435.899271" x2="1300.361903" y2="1458.816537"  fill="none" stroke ="blue" stroke-width="1" />
<line x1="582.889300" y1="1437.380329" x2="618.101798" y2="1551.929807"  fill="none" stroke ="blue" stroke-width="1" />
<line x1="618.217139" y1="1552.203804" x2="658.915586" y2="1650.741377"  fill="none" stroke ="blue" stroke-width="1" />
<line x1="604.662128" y1="1557.136195" x2="572.333119" y2="1453.865293"  fill="none" stroke ="blue" stroke-width="1" />
<line x1="1410.513565" y1="1504.168814" x2="1391.791106" y2="1559.933477"  fill="none" stroke ="blue" stroke-width="1" />
<line x1="639.831086" y1="392.026675" x2="624.593582" y2="430.537028"  fill="none" stroke ="blue" stroke-width="1" />
<line x1="1430.957126" y1="1432.346382" x2="1410.724572" y2="1503.846520"  fill="none" stroke ="blue" stroke-width="1" />
<line x1="363.828596" y1="1361.935468" x2="333.787817" y2="1347.884645"  fill="none" stroke ="blue" stroke-width="1" />
<line x1="782.430484" y1="527.744475" x2="798.569881" y2="526.259496"  fill="none" stroke ="blue" stroke-width="1" />
<line x1="1470.259496" y1="782.430119" x2="1471.744475" y2="798.569516"  fill="none" stroke ="blue" stroke-width="1" />
<line x1="527.744475" y1="1215.569516" x2="526.259496" y2="1199.430119"  fill="none" stroke ="blue" stroke-width="1" />
<line x1="1215.569881" y1="1470.259496" x2="1199.430484" y2="1471.744475"  fill="none" stroke ="blue" stroke-width="1" />
</svg>
